# xmcd
#
# Track frame offsets:
#	150
#	19345
#	37515
#	47364
#	60070
#	75916
#	92366
#	109337
#	120787
#	151782
#	166780
#	190126
#	201854
#	219558
#
# Disc length: 3024 seconds
#
# Revision: 0
# Processed by: cddbd v1.5.1PL0 Copyright (c) Steve Scherf et al.
# Submitted via: dBpowerAMP V4.0
#
DISCID=900bce0e
DTITLE=Dolly Parton - Little Sparrow
DYEAR=1900
DGENRE=Country
TTITLE0=Little sparrow
TTITLE1=Shine
TTITLE2=I don't believe you've met my baby
TTITLE3=My blue tears
TTITLE4=Seven bridges road
TTITLE5=Bluer pastures
TTITLE6=A tender lie
TTITLE7=I get a kick out of you
TTITLE8=Mountain angel
TTITLE9=Marry Me
TTITLE10=Down from dover
TTITLE11=The beautiful lie
TTITLE12=In the sweet by and by
TTITLE13=Little sparrow reprise
EXTD=Amstel Boyz 96.50
EXTT0=
EXTT1=
EXTT2=
EXTT3=
EXTT4=
EXTT5=
EXTT6=
EXTT7=
EXTT8=
EXTT9=
EXTT10=
EXTT11=
EXTT12=
EXTT13=
PLAYORDER=
